<mxfile host="app.diagrams.net" agent="Mozilla/5.0 (Windows NT 10.0; Win64; x64) AppleWebKit/537.36 (KHTML, like Gecko) Chrome/135.0.0.0 Safari/537.36" version="26.1.3">
  <diagram id="C5RBs43oDa-KdzZeNtuy" name="Page-1">
    <mxGraphModel dx="1050" dy="617" grid="1" gridSize="10" guides="1" tooltips="1" connect="1" arrows="1" fold="1" page="1" pageScale="1" pageWidth="827" pageHeight="1169" math="0" shadow="0">
      <root>
        <mxCell id="WIyWlLk6GJQsqaUBKTNV-0" />
        <mxCell id="WIyWlLk6GJQsqaUBKTNV-1" parent="WIyWlLk6GJQsqaUBKTNV-0" />
        <mxCell id="Kolna5eKRHNkZmJ6vJrr-3" value="" style="edgeStyle=orthogonalEdgeStyle;rounded=0;orthogonalLoop=1;jettySize=auto;html=1;" edge="1" parent="WIyWlLk6GJQsqaUBKTNV-1" source="Kolna5eKRHNkZmJ6vJrr-0" target="Kolna5eKRHNkZmJ6vJrr-2">
          <mxGeometry relative="1" as="geometry" />
        </mxCell>
        <mxCell id="Kolna5eKRHNkZmJ6vJrr-0" value="INICIO" style="strokeWidth=2;html=1;shape=mxgraph.flowchart.start_1;whiteSpace=wrap;fillColor=#d5e8d4;strokeColor=#82b366;" vertex="1" parent="WIyWlLk6GJQsqaUBKTNV-1">
          <mxGeometry x="360" y="290" width="100" height="60" as="geometry" />
        </mxCell>
        <mxCell id="Kolna5eKRHNkZmJ6vJrr-1" value="FIM" style="strokeWidth=2;html=1;shape=mxgraph.flowchart.start_1;whiteSpace=wrap;fillColor=#d5e8d4;strokeColor=#82b366;" vertex="1" parent="WIyWlLk6GJQsqaUBKTNV-1">
          <mxGeometry x="360" y="780" width="100" height="60" as="geometry" />
        </mxCell>
        <mxCell id="Kolna5eKRHNkZmJ6vJrr-6" value="" style="edgeStyle=orthogonalEdgeStyle;rounded=0;orthogonalLoop=1;jettySize=auto;html=1;" edge="1" parent="WIyWlLk6GJQsqaUBKTNV-1" source="Kolna5eKRHNkZmJ6vJrr-2" target="Kolna5eKRHNkZmJ6vJrr-5">
          <mxGeometry relative="1" as="geometry" />
        </mxCell>
        <mxCell id="Kolna5eKRHNkZmJ6vJrr-2" value="RAIO = 0&lt;div&gt;AREA = 0&lt;/div&gt;" style="whiteSpace=wrap;html=1;fillColor=#f5f5f5;strokeColor=#666666;strokeWidth=2;fontColor=#333333;" vertex="1" parent="WIyWlLk6GJQsqaUBKTNV-1">
          <mxGeometry x="350" y="400" width="120" height="60" as="geometry" />
        </mxCell>
        <mxCell id="Kolna5eKRHNkZmJ6vJrr-8" value="" style="edgeStyle=orthogonalEdgeStyle;rounded=0;orthogonalLoop=1;jettySize=auto;html=1;" edge="1" parent="WIyWlLk6GJQsqaUBKTNV-1" source="Kolna5eKRHNkZmJ6vJrr-5">
          <mxGeometry relative="1" as="geometry">
            <mxPoint x="410" y="654.5" as="targetPoint" />
          </mxGeometry>
        </mxCell>
        <mxCell id="Kolna5eKRHNkZmJ6vJrr-5" value="RAIO" style="html=1;strokeWidth=2;shape=manualInput;whiteSpace=wrap;rounded=1;size=26;arcSize=11;fillColor=#dae8fc;strokeColor=#6c8ebf;" vertex="1" parent="WIyWlLk6GJQsqaUBKTNV-1">
          <mxGeometry x="360" y="514.5" width="100" height="60" as="geometry" />
        </mxCell>
        <mxCell id="Kolna5eKRHNkZmJ6vJrr-9" value="" style="edgeStyle=orthogonalEdgeStyle;rounded=0;orthogonalLoop=1;jettySize=auto;html=1;" edge="1" parent="WIyWlLk6GJQsqaUBKTNV-1" source="Kolna5eKRHNkZmJ6vJrr-7" target="Kolna5eKRHNkZmJ6vJrr-1">
          <mxGeometry relative="1" as="geometry" />
        </mxCell>
        <mxCell id="Kolna5eKRHNkZmJ6vJrr-7" value="AREA = 3,1416 * (RAIO * RAIO)" style="whiteSpace=wrap;html=1;fillColor=#f5f5f5;strokeColor=#666666;strokeWidth=2;rounded=1;arcSize=11;fontColor=#333333;" vertex="1" parent="WIyWlLk6GJQsqaUBKTNV-1">
          <mxGeometry x="310" y="660" width="200" height="60" as="geometry" />
        </mxCell>
      </root>
    </mxGraphModel>
  </diagram>
</mxfile>
